<?xml version="1.0" standalone="no"?>
<!DOCTYPE svg PUBLIC "-//W3C//DTD SVG 20010904//EN"
 "http://www.w3.org/TR/2001/REC-SVG-20010904/DTD/svg10.dtd">
<svg version="1.0" xmlns="http://www.w3.org/2000/svg"
 width="700.000000pt" height="700.000000pt" viewBox="0 0 700.000000 700.000000"
 preserveAspectRatio="xMidYMid meet">
<metadata>
Created by potrace 1.11, written by Peter Selinger 2001-2013
</metadata>
<g transform="translate(0.000000,700.000000) scale(0.100000,-0.100000)"
fill="#000000" stroke="none">
<path d="M1502 6989 c-135 -17 -191 -29 -312 -65 -88 -26 -296 -114 -340 -143
-14 -9 -36 -22 -50 -29 -55 -28 -209 -145 -291 -223 -200 -187 -343 -410 -429
-668 -81 -242 -74 -48 -76 -2336 -2 -1996 -2 -2042 18 -2155 92 -536 471
-1009 978 -1222 19 -9 49 -21 65 -28 81 -34 219 -73 345 -97 77 -15 268 -17
2055 -19 1084 -1 1995 1 2025 6 126 18 147 22 200 35 164 40 268 78 418 154
293 148 561 413 710 701 47 90 100 213 107 249 2 9 8 28 13 42 13 32 30 115
47 229 19 119 15 4126 -3 4210 -63 283 -139 461 -280 659 -59 84 -220 258
-294 318 -171 139 -403 260 -619 322 -242 70 -62 65 -2249 67 -1086 1 -2003
-2 -2038 -7z m3923 -1173 c152 -29 292 -128 352 -248 51 -101 49 -13 48 -2085
l-1 -1938 -22 -56 c-30 -75 -75 -141 -125 -185 -44 -37 -164 -101 -207 -109
-14 -3 -38 -8 -55 -12 -16 -3 -871 -7 -1898 -7 -1411 -1 -1886 2 -1939 11
-193 32 -353 174 -393 348 -8 37 -11 556 -10 1985 l1 1935 21 58 c47 125 146
222 283 275 99 38 116 38 2039 37 1026 -1 1884 -5 1906 -9z"/>
<path d="M3270 5215 c-41 -7 -93 -16 -115 -19 -97 -16 -261 -70 -383 -128 -82
-39 -228 -122 -267 -152 -11 -9 -45 -34 -75 -58 -126 -96 -280 -262 -377 -408
-120 -179 -224 -430 -258 -625 -4 -22 -9 -49 -11 -61 -12 -63 -20 -184 -18
-276 6 -387 125 -730 362 -1043 67 -88 235 -253 327 -322 419 -313 938 -424
1435 -308 36 9 75 18 87 20 12 3 57 18 100 34 255 95 450 219 639 406 184 181
318 384 404 610 12 33 26 69 31 80 4 11 10 31 13 45 4 14 13 50 22 80 8 30 17
71 20 90 3 19 7 41 9 48 26 74 22 444 -4 567 -5 22 -14 63 -19 90 -62 298
-254 632 -494 860 -106 101 -132 122 -237 192 -215 144 -468 240 -729 278
-118 16 -359 16 -462 0z m371 -1175 c66 -17 178 -74 228 -117 81 -69 151 -182
178 -288 15 -58 14 -204 -1 -265 -66 -263 -296 -435 -569 -424 -179 6 -329 85
-433 226 -41 55 -81 143 -90 198 -3 14 -7 33 -10 43 -3 10 -6 48 -5 84 2 323
257 568 577 558 44 -2 100 -8 125 -15z"/>
</g>
</svg>
